<svg xmlns="http://www.w3.org/2000/svg" width="256" height="256" viewBox="0 0 256 256">
  <path d="M128 16l88 40v72c0 68-44 104-88 112-44-8-88-44-88-112V56l88-40z" fill="#111"/>
  <path d="M128 40l60 28v56c0 52-34 78-60 84-26-6-60-32-60-84V68l60-28z" fill="#fff" opacity="0.08"/>
  <path d="M86 130c8-26 34-44 62-44s54 18 62 44" fill="none" stroke="#fff" stroke-width="10" stroke-linecap="round"/>
  <path d="M88 132h80v34c0 10-8 18-18 18h-44c-10 0-18-8-18-18v-34z" fill="#fff" opacity="0.9"/>
  <path d="M92 132c4-18 20-32 40-32s36 14 40 32" fill="none" stroke="#111" stroke-width="6" stroke-linecap="round"/>
  <path d="M98 184h60" stroke="#111" stroke-width="8" stroke-linecap="round"/>
  <text x="128" y="222" text-anchor="middle" font-family="Arial, sans-serif" font-size="18" fill="#111">ICSForge</text>
</svg>
